<svg xmlns="http://www.w3.org/2000/svg" viewBox="0 0 651 218"><defs/><path d="M210 131v-28h3.12v25h14.17v3zM233.35 131H230l12-28h4.17l12 28h-3.35l-3.21-7.39h-15.1zm11.88-22.44c-.51-1.33-.92-2.43-1.15-3.3-.23.87-.64 2-1.15 3.3l-5.23 12.16h12.76zM294.54 131v-12.86h-16.75V131h-3.12v-28h3.12v12.21h16.75V103h3.12v28zM306.05 131h-3.4l12.07-28h4.17l12 28h-3.35l-3.21-7.39h-15.12zm11.88-22.44c-.5-1.33-.92-2.43-1.15-3.3-.23.87-.64 2-1.14 3.3l-5.23 12.16h12.75zM357.52 118.46c0 8.26-4.22 12.94-11.66 12.94s-11.65-4.68-11.65-13V103h3.12v15.42c0 6.47 3.12 10 8.53 10s8.54-3.53 8.54-10V103h3.12zM374.49 105.94V131h-3.17v-25.06h-10.09V103h23.39v2.94zM388.93 131v-28h18.31v2.94h-15.19v9.45h13.31v2.94h-13.31v9.72h15.6V131zM442.74 107.32a22 22 0 00-9.13-2c-3.4 0-5.41 2-5.41 4.09 0 3.35 2.15 4 7.84 5.91s8.62 3.72 8.62 8.35c0 5.46-4.17 7.71-9 7.71a21.09 21.09 0 01-12-4l1.29-2.38a20.61 20.61 0 0010.6 3.44c3.76 0 5.91-1.56 5.91-4.4 0-3.22-1.65-4.36-7.93-6.33-5.23-1.66-8.54-2.94-8.54-8.08 0-4.22 3.35-7.15 8.67-7.15a25 25 0 0110.1 2.24zM475.63 117c0 9.18-4.77 14.36-13 14.36s-13.08-5.18-13.08-14.36 4.78-14.49 13.08-14.49 13 5.22 13 14.49zm-3.21 0c0-7.52-3.54-11.56-9.87-11.56s-9.81 4-9.81 11.56 3.53 11.42 9.81 11.42 9.87-3.95 9.87-11.42zM504.89 128c-2.84 2.25-6.7 3.44-11.42 3.44-8.17 0-12.94-5.18-12.94-14.4s4.77-14.45 13.4-14.45a20.6 20.6 0 019.81 2.38l-1.05 2.39a21.86 21.86 0 00-8.67-1.84c-6.75 0-10.28 4-10.28 11.56 0 7.25 3.63 11.42 9.87 11.42a16.53 16.53 0 0010-2.89zM510.62 131v-28h3.12v28zM522.73 131v-28H541v2.94h-15.15v9.45h13.3v2.94h-13.3v9.72h15.6V131zm13.95-35.1a29.65 29.65 0 01-6.38 4.68l-1-1 5-6 2.47 1.65zM558.1 105.94V131h-3.17v-25.06h-10.09V103h23.39v2.94zM572.54 131v-28h18.31v2.94h-15.19v9.45H589v2.94h-13.34v9.72h15.6V131zm14-35.1a29.4 29.4 0 01-6.38 4.68l-1-1 5-6 2.48 1.65zM60 60.04h4v106h-4zM128 132v30H98v-30zm4-4H94v38h38zM162 60.04h4v106h-4zM128 64v30H98V64zm4-4H94v38h38z"/></svg>
