<svg xmlns="http://www.w3.org/2000/svg" viewBox="0 0 387.973 387.973">
    <defs>
        <clipPath clipPathUnits="userSpaceOnUse" id="a">
            <path d="M0 600h600V0H0Z"/>
        </clipPath>
        <clipPath clipPathUnits="userSpaceOnUse" id="b">
            <path d="M231.88 344.873h136.24V200H231.88Z"/>
        </clipPath>
    </defs>
    <g clip-path="url(#a)" transform="matrix(1.33333 0 0 -1.33333 -206.01 593.987)">
        <path d="M435.488 300c0-34.68-13.23-69.35-39.68-95.81-.83-.83-1.66-1.64-2.5-2.44-1.69-1.6-3.41-3.15-5.15-4.65-1.75-1.5-3.52-2.95-5.32-4.34-1.8-1.4-3.63-2.74-5.49-4.03-1.85-1.29-3.73-2.53-5.63-3.72-1.9-1.19-3.83-2.33-5.77-3.41-1.95-1.09-3.91-2.12-5.9-3.1-1.99-.98-3.99-1.91-6.01-2.79-17.2-7.47-35.62-11.2-54.04-11.2s-36.84 3.73-54.03 11.2c-1.69.73-3.37 1.5-5.04 2.33-2.68 1.28-5.32 2.67-7.93 4.17-1.59.88-3.16 1.82-4.72 2.8a118.9 118.9 0 0 0-5.63 3.72c-1.86 1.29-3.69 2.63-5.49 4.03-1.8 1.39-3.57 2.84-5.32 4.34-1.74 1.5-3.46 3.05-5.15 4.65-.84.8-1.67 1.61-2.5 2.44-26.45 26.46-39.68 61.13-39.68 95.81s13.23 69.35 39.68 95.81c26.46 26.45 61.13 39.68 95.81 39.68s69.35-13.23 95.81-39.68c26.45-26.46 39.68-61.13 39.68-95.81" fill="#0e0e0e"/>
        <path d="M435.488 300c0-34.68-13.23-69.35-39.68-95.81-.83-.83-1.66-1.64-2.5-2.44-1.69-1.6-3.41-3.15-5.15-4.65-1.75-1.5-3.52-2.95-5.32-4.34-1.8-1.4-3.63-2.74-5.49-4.03-1.85-1.29-3.73-2.53-5.63-3.72-1.9-1.19-3.83-2.32-5.77-3.41-1.95-1.09-3.91-2.12-5.9-3.1-1.99-.98-3.99-1.91-6.01-2.79-17.2-7.47-35.62-11.2-54.04-11.2s-36.84 3.73-54.03 11.2c-1.7.73-3.38 1.51-5.04 2.33-2.68 1.28-5.32 2.67-7.93 4.17-1.59.89-3.16 1.83-4.72 2.8a118.9 118.9 0 0 0-5.63 3.72c-1.86 1.29-3.69 2.63-5.49 4.03-1.8 1.39-3.57 2.84-5.32 4.34-1.74 1.5-3.46 3.05-5.15 4.65-.84.8-1.67 1.61-2.5 2.44-26.45 26.46-39.68 61.13-39.68 95.81s13.23 69.35 39.68 95.81c26.46 26.45 61.13 39.68 95.81 39.68s69.35-13.23 95.81-39.68c26.45-26.46 39.68-61.13 39.68-95.81" fill="#0e0e0e"/>
        <path d="M392.268 207.72c-.79-.79-1.6-1.58-2.41-2.35-1.58-1.5-3.25-3.01-4.96-4.48-1.77-1.51-3.44-2.88-5.12-4.17-1.69-1.32-3.46-2.62-5.28-3.88-1.75-1.22-3.58-2.43-5.43-3.59-1.69-1.06-3.51-2.13-5.57-3.29-1.85-1.04-3.76-2.04-5.66-2.97-1.94-.96-3.89-1.86-5.8-2.7-16.47-7.15-33.98-10.78-52.04-10.78-18.06 0-35.57 3.63-52.04 10.79-1.58.67-3.19 1.42-4.82 2.22l-.03.02-.03.01c-2.53 1.21-5.08 2.56-7.59 4l-.02.01-.03.01c-1.39.78-2.87 1.66-4.52 2.69-1.84 1.14-3.66 2.34-5.4 3.56-1.84 1.28-3.61 2.58-5.29 3.89-1.69 1.3-3.36 2.67-5.14 4.19-1.7 1.46-3.37 2.97-4.96 4.48-.8.76-1.61 1.55-2.4 2.35-24.65 24.65-38.22 57.42-38.22 92.27 0 34.85 13.57 67.62 38.22 92.28 24.65 24.64 57.42 38.21 92.27 38.21 34.85 0 67.62-13.57 92.27-38.22 24.65-24.65 38.22-57.42 38.22-92.27 0-34.85-13.57-67.62-38.22-92.28m3.54 188.09c-26.46 26.45-61.13 39.68-95.81 39.68s-69.35-13.23-95.81-39.68c-26.45-26.46-39.68-61.13-39.68-95.81s13.23-69.35 39.68-95.81c.83-.83 1.66-1.64 2.5-2.44 1.69-1.6 3.41-3.15 5.15-4.65 1.75-1.5 3.52-2.95 5.32-4.34 1.8-1.4 3.63-2.74 5.49-4.03a118.9 118.9 0 0 1 5.63-3.72c1.56-.97 3.13-1.91 4.72-2.8 2.61-1.5 5.25-2.89 7.93-4.17 1.66-.82 3.34-1.6 5.04-2.33 17.19-7.47 35.61-11.2 54.03-11.2s36.84 3.73 54.04 11.2c2.02.88 4.02 1.81 6.01 2.79 1.99.98 3.95 2.01 5.9 3.1 1.94 1.09 3.87 2.22 5.77 3.41 1.9 1.19 3.78 2.43 5.63 3.72 1.86 1.29 3.69 2.63 5.49 4.03 1.8 1.39 3.57 2.84 5.32 4.34 1.74 1.5 3.46 3.05 5.15 4.65.84.8 1.67 1.61 2.5 2.44 26.45 26.46 39.68 61.13 39.68 95.81s-13.23 69.35-39.68 95.81m-3.54-188.09c-.79-.79-1.6-1.58-2.41-2.35-1.58-1.5-3.25-3.01-4.96-4.48-1.77-1.51-3.44-2.88-5.12-4.17-1.69-1.32-3.46-2.62-5.28-3.88-1.75-1.22-3.58-2.43-5.43-3.59-1.69-1.06-3.51-2.13-5.57-3.29-1.85-1.04-3.76-2.04-5.66-2.97-1.94-.96-3.89-1.86-5.8-2.7-16.47-7.15-33.98-10.78-52.04-10.78-18.06 0-35.57 3.63-52.04 10.79-1.58.67-3.19 1.42-4.82 2.22l-.03.02-.03.01c-2.53 1.21-5.08 2.56-7.59 4l-.02.01-.03.01c-1.39.78-2.87 1.66-4.52 2.69-1.84 1.14-3.66 2.34-5.4 3.56-1.84 1.28-3.61 2.58-5.29 3.89-1.69 1.3-3.36 2.67-5.14 4.19-1.7 1.46-3.37 2.97-4.96 4.48-.8.76-1.61 1.55-2.4 2.35-24.65 24.65-38.22 57.42-38.22 92.27 0 34.85 13.57 67.62 38.22 92.28 24.65 24.64 57.42 38.21 92.27 38.21 34.85 0 67.62-13.57 92.27-38.22 24.65-24.65 38.22-57.42 38.22-92.27 0-34.85-13.57-67.62-38.22-92.28m3.54 188.09c-26.46 26.45-61.13 39.68-95.81 39.68s-69.35-13.23-95.81-39.68c-26.45-26.46-39.68-61.13-39.68-95.81s13.23-69.35 39.68-95.81c.83-.83 1.66-1.64 2.5-2.44 1.69-1.6 3.41-3.15 5.15-4.65 1.75-1.5 3.52-2.95 5.32-4.34 1.8-1.4 3.63-2.74 5.49-4.03a118.9 118.9 0 0 1 5.63-3.72c1.56-.97 3.13-1.91 4.72-2.8 2.61-1.5 5.25-2.89 7.93-4.17 1.66-.82 3.34-1.6 5.04-2.33 17.19-7.47 35.61-11.2 54.03-11.2s36.84 3.73 54.04 11.2c2.02.88 4.02 1.81 6.01 2.79 1.99.98 3.95 2.01 5.9 3.1 1.94 1.09 3.87 2.22 5.77 3.41 1.9 1.19 3.78 2.43 5.63 3.72 1.86 1.29 3.69 2.63 5.49 4.03 1.8 1.39 3.57 2.84 5.32 4.34 1.74 1.5 3.46 3.05 5.15 4.65.84.8 1.67 1.61 2.5 2.44 26.45 26.46 39.68 61.13 39.68 95.81s-13.23 69.35-39.68 95.81m-3.54-188.09c-.79-.79-1.6-1.58-2.41-2.35-1.58-1.5-3.25-3.01-4.96-4.48-1.77-1.51-3.44-2.88-5.12-4.17-1.69-1.32-3.46-2.62-5.28-3.88-1.75-1.22-3.58-2.43-5.43-3.59-1.69-1.06-3.51-2.13-5.57-3.29-1.85-1.04-3.76-2.04-5.66-2.97-1.94-.96-3.89-1.86-5.8-2.7-16.47-7.15-33.98-10.78-52.04-10.78-18.06 0-35.57 3.63-52.04 10.79-1.58.67-3.19 1.42-4.82 2.22l-.03.02-.03.01c-2.53 1.21-5.08 2.56-7.59 4l-.02.01-.03.01c-1.39.78-2.87 1.66-4.52 2.69-1.84 1.14-3.66 2.34-5.4 3.56-1.84 1.28-3.61 2.58-5.29 3.89-1.69 1.3-3.36 2.67-5.14 4.19-1.7 1.46-3.37 2.97-4.96 4.48-.8.76-1.61 1.55-2.4 2.35-24.65 24.65-38.22 57.42-38.22 92.27 0 34.85 13.57 67.62 38.22 92.28 24.65 24.64 57.42 38.21 92.27 38.21 34.85 0 67.62-13.57 92.27-38.22 24.65-24.65 38.22-57.42 38.22-92.27 0-34.85-13.57-67.62-38.22-92.28m3.54 188.09c-26.46 26.45-61.13 39.68-95.81 39.68s-69.35-13.23-95.81-39.68c-26.45-26.46-39.68-61.13-39.68-95.81s13.23-69.35 39.68-95.81c.83-.83 1.66-1.64 2.5-2.44 1.69-1.6 3.41-3.15 5.15-4.65 1.75-1.5 3.52-2.95 5.32-4.34 1.8-1.4 3.63-2.74 5.49-4.03a118.9 118.9 0 0 1 5.63-3.72c1.56-.97 3.13-1.91 4.72-2.8 2.61-1.5 5.25-2.89 7.93-4.17 1.66-.82 3.34-1.6 5.04-2.33 17.19-7.47 35.61-11.2 54.03-11.2s36.84 3.73 54.04 11.2c2.02.88 4.02 1.81 6.01 2.79 1.99.98 3.95 2.01 5.9 3.1 1.94 1.09 3.87 2.22 5.77 3.41 1.9 1.19 3.78 2.43 5.63 3.72 1.86 1.29 3.69 2.63 5.49 4.03 1.8 1.39 3.57 2.84 5.32 4.34 1.74 1.5 3.46 3.05 5.15 4.65.84.8 1.67 1.61 2.5 2.44 26.45 26.46 39.68 61.13 39.68 95.81s-13.23 69.35-39.68 95.81m3.54-195.15c-.86-.86-1.73-1.71-2.6-2.54-1.71-1.62-3.5-3.23-5.34-4.82a136.916 136.916 0 0 0-11.2-8.67c-1.88-1.31-3.84-2.61-5.84-3.86a143.11 143.11 0 0 0-5.98-3.53c-2.01-1.13-4.08-2.21-6.13-3.23-2.08-1.02-4.17-1.99-6.23-2.89-17.74-7.7-36.59-11.61-56.03-11.61-19.44 0-38.29 3.91-56 11.61-1.71.73-3.48 1.55-5.25 2.42-2.75 1.31-5.51 2.77-8.21 4.32-1.53.85-3.13 1.8-4.9 2.9-2 1.24-3.97 2.55-5.84 3.86a135.29 135.29 0 0 0-11.22 8.69c-1.83 1.58-3.62 3.19-5.34 4.82-.86.82-1.73 1.67-2.59 2.53-26.53 26.54-41.14 61.82-41.14 99.34s14.61 72.8 41.15 99.35c26.54 26.53 61.82 41.14 99.34 41.14s72.8-14.61 99.35-41.15c26.53-26.54 41.14-61.82 41.14-99.34s-14.61-72.8-41.14-99.34m3.53 202.22c-27.49 27.48-64.02 42.61-102.88 42.61s-75.39-15.13-102.88-42.61c-27.48-27.49-42.61-64.02-42.61-102.88s15.13-75.39 42.61-102.88c.88-.88 1.78-1.76 2.67-2.61 1.78-1.68 3.63-3.36 5.52-4.98 1.99-1.71 3.86-3.23 5.74-4.68 1.87-1.46 3.86-2.92 5.9-4.34 1.93-1.35 3.98-2.71 6.05-4 1.83-1.13 3.49-2.11 5.07-3 2.8-1.61 5.65-3.11 8.49-4.46 1.84-.91 3.68-1.76 5.46-2.53 18.34-7.97 37.85-12.01 57.98-12.01 20.13 0 39.65 4.05 58.02 12.03 2.13.93 4.3 1.93 6.45 2.99 2.13 1.05 4.27 2.17 6.36 3.34 2.28 1.29 4.31 2.48 6.2 3.66 2.06 1.3 4.1 2.64 6.04 4 2.02 1.4 4.01 2.86 5.91 4.34 1.86 1.43 3.72 2.95 5.69 4.64 1.9 1.64 3.76 3.31 5.52 4.98.91.87 1.81 1.75 2.69 2.63 27.48 27.49 42.61 64.02 42.61 102.88s-15.13 75.39-42.61 102.88" fill="#0e0e0e"/>
        <path d="M298.087 290.122v28.696c-9.904-.45-19.208-4.277-26.56-10.992l20.297-20.297c.996-.996 2.498-1.309 3.791-.75.102.043.205.085.308.126a3.452 3.452 0 0 1 2.164 3.217m-8.251-17.799-.024.055a3.463 3.463 0 0 1-3.19 2.098h-28.788c.488-9.83 4.352-19.02 10.992-26.298l20.288 20.288a3.485 3.485 0 0 1 .722 3.857m5.986-5.861-.085.036c-1.345.57-2.894.334-3.927-.7l-20.284-20.284c7.316-6.715 16.62-10.54 26.561-10.99v28.673c0 1.454-.92 2.71-2.265 3.265m-37.988 11.84h28.59c1.472 0 2.746.938 3.279 2.31.039.1.079.197.12.296.564 1.333.314 2.87-.71 3.893l-20.287 20.286c-6.753-7.352-10.617-16.769-10.992-26.785m46.344 8.577.085-.036c1.345-.57 2.894-.334 3.927.7l20.284 20.284c-7.316 6.715-16.619 10.54-26.56 10.99v-28.673c0-1.454.92-2.71 2.264-3.265m26.997 18.246-20.287-20.287c-1.024-1.024-1.275-2.559-.711-3.893.042-.098.082-.197.121-.296.533-1.37 1.807-2.309 3.278-2.309h28.591c-.375 9.978-4.239 19.395-10.992 26.785m-27.348-79.305c10.692.487 20.746 4.613 28.624 11.854l-22.631 23.343c-2.182 2.25-5.993.705-5.993-2.428Zm7.046 42.66 20.301-20.302c6.641 7.277 10.505 16.47 10.992 26.297h-28.808a3.467 3.467 0 0 1-3.194-2.107l-.017-.04a3.483 3.483 0 0 1 .726-3.849" fill="#fff"/>
        <path d="M339.803 239.587c9.416 10.091 14.593 23.26 14.593 37.065 0 14.518-5.665 28.173-15.944 38.452-10.279 10.28-23.934 15.944-38.452 15.944-14.518 0-28.174-5.665-38.453-15.944-10.279-10.279-15.943-23.934-15.943-38.452 0-14.519 5.664-28.174 15.943-38.453 9.792-9.79 22.772-15.419 36.54-15.906v8.366c-11.592.487-22.397 5.214-30.65 13.43-8.703 8.703-13.468 20.258-13.468 32.563 0 12.304 4.802 23.86 13.468 32.562 8.704 8.704 20.258 13.468 32.563 13.468 12.305 0 23.86-4.802 32.563-13.468 8.703-8.666 13.467-20.258 13.467-32.562 0-11.668-4.314-22.659-12.154-31.175Zm1.989-11.254-6.415 6.415c-8.666-7.991-19.733-12.605-31.55-13.055v-9.08a58.67 58.67 0 0 1 37.965 15.72" fill="#fff"/>
        <path d="M262.748 339.489c-.038 2.4-.038 4.914-.038 7.503 0 21.608 17.595 39.203 39.203 39.203 21.61 0 39.203-17.595 39.203-39.203 0-3.564-.037-6.94-.112-10.167a69.07 69.07 0 0 0 13.317-13.355c.375 6.753.563 14.518.563 23.522.038 29.299-23.709 53.008-52.97 53.008-29.262 0-53.009-23.71-53.009-53.008 0-7.09.113-13.468.338-19.17a67.904 67.904 0 0 0 13.505 11.667" fill="#fff"/>
        <g clip-path="url(#b)" opacity=".85">
            <path d="M363.757 268.09a4.935 4.935 0 0 0-.06-.443.702.702 0 0 0 .156-.024 3.815 3.815 0 0 0 2.989-4.502 3.816 3.816 0 0 0-4.501-2.99c-.048.013-.108.025-.156.037a34.178 34.178 0 0 0-.11-.432c.05 0 .098-.024.146-.036a3.836 3.836 0 0 0 2.4-4.85 3.816 3.816 0 0 0-4.85-2.401c-.047.012-.095.036-.144.06-.048-.144-.107-.276-.167-.42.048-.012.095-.036.143-.06a3.84 3.84 0 0 0 1.777-5.114 3.829 3.829 0 0 0-5.114-1.765c-.048.024-.096.048-.144.084-.072-.132-.144-.276-.216-.408.048-.012.084-.048.132-.072a3.823 3.823 0 0 0 1.129-5.294 3.834 3.834 0 0 0-5.295-1.117c-.048.036-.096.06-.143.108-.085-.12-.17-.24-.264-.36a3.826 3.826 0 0 0 .576-5.498c-.012-.012-.012-.024-.024-.036-1.345-1.561-3.806-1.49-5.234-.024l-1.285 1.309-4.61 4.693c9.724 10.396 15.042 23.938 15.042 38.15 0 14.935-5.81 28.969-16.386 39.545-10.541 10.576-24.61 16.398-39.544 16.398-14.934 0-28.955-5.822-39.543-16.398-10.576-10.54-16.387-24.61-16.387-39.544 0-14.922 5.81-28.955 16.387-39.531 10.06-10.06 23.409-15.87 37.598-16.363l.036-8.44h-.012l.024-3.708a3.82 3.82 0 0 0-2.677 3.697v.156c-.144 0-.288.012-.432.024 0-.048 0-.096-.012-.144a3.827 3.827 0 0 0-4.31-3.277 3.833 3.833 0 0 0-3.265 4.322c.012.048.012.096.024.132-.156.024-.3.06-.444.084 0-.048-.012-.084-.024-.132a3.826 3.826 0 0 0-4.682-2.701 3.83 3.83 0 0 0-2.701 4.693c.012.048.024.084.036.132a3.493 3.493 0 0 0-.42.144c-.012-.048-.036-.084-.048-.132a3.808 3.808 0 0 0-4.982-2.088 3.824 3.824 0 0 0-2.101 4.982c.024.048.036.096.072.132-.132.06-.276.12-.408.192a.375.375 0 0 0-.06-.12 3.813 3.813 0 0 0-5.21-1.453 3.81 3.81 0 0 0-1.452 5.21.45.45 0 0 0 .083.12c-.12.084-.252.156-.372.24l-.084-.12a3.83 3.83 0 0 0-5.354-.78 3.821 3.821 0 0 0-.792 5.354c.036.036.06.084.108.12-.108.084-.228.18-.336.288-.036-.036-.072-.084-.108-.12a3.83 3.83 0 0 0-5.522 5.306l.108.108-.288.324c-.037-.036-.084-.072-.12-.108-1.645-1.32-4.058-1.068-5.378.576a3.817 3.817 0 0 0 .564 5.379c.048.036.084.072.132.096-.096.12-.18.24-.264.36-.036-.036-.084-.06-.12-.084a3.823 3.823 0 0 0-5.271 1.236 3.832 3.832 0 0 0 1.237 5.27c.048.024.084.048.132.072l-.216.397c-.036-.037-.084-.048-.12-.073a3.812 3.812 0 0 0-5.066 1.885 3.812 3.812 0 0 0 1.885 5.066.585.585 0 0 0 .132.048c-.048.144-.108.276-.156.42a.585.585 0 0 0-.132-.048 3.832 3.832 0 0 0-4.79 2.52 3.818 3.818 0 0 0 2.509 4.79l.144.037a2.843 2.843 0 0 0-.108.432l-.144-.036a3.827 3.827 0 0 0-4.442 3.098 3.814 3.814 0 0 0 3.097 4.429c.048.012.108.012.156.024a5.012 5.012 0 0 0-.048.445c-.048 0-.108-.012-.156-.012a3.822 3.822 0 1 0-.396 7.634h.168a2.609 2.609 0 0 0 0 .433c-.06 0-.108 0-.168.012a3.83 3.83 0 0 0 .576 7.635.702.702 0 0 0 .156-.024c.012.144.036.3.06.444a.702.702 0 0 0-.156.024 3.823 3.823 0 0 0-2.99 4.514 3.826 3.826 0 0 0 4.503 2.989l.156-.036.108.42c-.048.012-.096.036-.144.048-2.005.672-3.073 2.845-2.401 4.85a3.835 3.835 0 0 0 4.85 2.4.734.734 0 0 0 .144-.06c.06.145.108.277.168.409a.734.734 0 0 0-.144.06 3.844 3.844 0 0 0-1.777 5.114c.925 1.897 3.218 2.7 5.114 1.777.048-.024.096-.048.144-.084l.216.396c-.048.012-.084.048-.132.072a3.825 3.825 0 0 0-1.128 5.294 3.81 3.81 0 0 0 5.294 1.116c.048-.024.084-.06.132-.108.084.12.18.252.276.372-.048.024-.084.06-.132.096a3.84 3.84 0 0 0-.456 5.403 3.839 3.839 0 0 0 5.402.444.569.569 0 0 0 .12-.12c.108.108.204.216.312.324-.048.036-.096.072-.132.12-1.43 1.548-1.32 3.973.24 5.402 1.549 1.429 3.974 1.32 5.402-.228.036-.036.072-.084.12-.132.108.096.228.192.336.276-.036.036-.072.084-.108.132a3.83 3.83 0 0 0 .913 5.342 3.839 3.839 0 0 0 5.33-.912c.036-.048.06-.096.084-.144.12.084.252.156.384.24-.036.036-.06.084-.084.132a3.826 3.826 0 1 0 6.747 3.613l.072-.144c.132.072.264.132.408.192-.036.048-.048.096-.072.144a3.815 3.815 0 0 0 2.209 4.934 3.815 3.815 0 0 0 4.934-2.21c.012-.047.036-.095.048-.143.144.048.288.096.432.132-.024.048-.036.096-.048.144a3.835 3.835 0 0 0 2.809 4.634 3.823 3.823 0 0 0 4.622-2.81.702.702 0 0 0 .024-.155c.156.024.3.048.444.072-.012.048-.012.108-.024.156a3.822 3.822 0 0 0 3.36 4.238 3.822 3.822 0 0 0 4.239-3.361c0-.06.012-.11.012-.17.144.013.3.013.444.025-.012.06-.012.108-.012.169a3.833 3.833 0 0 0 3.877 3.78 3.823 3.823 0 0 0 3.782-3.864c0-.061 0-.121-.012-.181.156 0 .3-.012.444-.024 0 .06 0 .108.012.168a3.828 3.828 0 0 0 4.31 3.266 3.818 3.818 0 0 0 3.265-4.31c-.012-.06-.012-.12-.024-.168.144-.024.3-.048.444-.084 0 .048.012.108.024.156a3.818 3.818 0 0 0 4.682 2.7 3.818 3.818 0 0 0 2.7-4.681c-.011-.048-.023-.108-.047-.156.144-.036.276-.084.42-.144.024.048.037.108.06.156a3.807 3.807 0 0 0 4.982 2.089 3.841 3.841 0 0 0 2.1-4.994l-.071-.144c.132-.06.264-.12.396-.192l.072.144a3.846 3.846 0 0 0 5.222 1.453 3.831 3.831 0 0 0 1.44-5.222.474.474 0 0 0-.083-.133c.132-.084.252-.168.372-.24a.807.807 0 0 0 .084.132 3.844 3.844 0 0 0 5.366.78 3.828 3.828 0 0 0 .78-5.353 1.278 1.278 0 0 0-.108-.132c.12-.096.228-.192.337-.29.024.049.072.086.107.133a3.831 3.831 0 0 0 5.415.109 3.818 3.818 0 0 0 .108-5.403c-.036-.048-.084-.084-.132-.12.108-.108.204-.216.3-.336.048.048.084.084.132.12a3.826 3.826 0 0 0 5.378-.564 3.831 3.831 0 0 0-.564-5.39c-.048-.036-.084-.072-.132-.096l.252-.36c.048.036.084.072.132.096a3.836 3.836 0 0 0 5.27-1.25c1.116-1.787.552-4.152-1.237-5.257-.048-.024-.096-.06-.144-.072l.217-.396c.035.024.083.048.13.072a3.826 3.826 0 0 0 5.067-1.897 3.812 3.812 0 0 0-2.028-5.126c.06-.132.108-.264.156-.408.048.012.096.036.144.048a3.833 3.833 0 0 0 4.802-2.51 3.831 3.831 0 0 0-2.521-4.79l-.144-.035c.036-.144.072-.288.108-.444l.144.036a3.826 3.826 0 0 0 4.44-3.085 3.825 3.825 0 0 0-3.096-4.442c-.048-.012-.108-.012-.156-.024.024-.144.036-.288.048-.432.048 0 .108.012.156.012a3.828 3.828 0 1 0 .396-7.647h-.168a2.397 2.397 0 0 0 0-.432c.06 0 .108 0 .168-.012a3.832 3.832 0 0 0 3.53-4.106 3.832 3.832 0 0 0-4.106-3.53.702.702 0 0 0-.156.025m-12.233-49.808a2.84 2.84 0 0 0-.324-.336 3.813 3.813 0 0 0-5.138-.024l-.42-.348a3.828 3.828 0 0 0-1.093-5.018 3.807 3.807 0 0 0-5.03.54h-.012a10.563 10.563 0 0 0-.468-.312 3.835 3.835 0 0 0-1.776-4.73 3.82 3.82 0 0 0-4.802 1.008c-.193-.096-.385-.192-.589-.288a3.845 3.845 0 0 0-2.4-4.273 3.79 3.79 0 0 0-4.502 1.392 19.197 19.197 0 0 0-.757-.276 3.833 3.833 0 0 0-2.917-3.673c-1.644-.408-3.289.324-4.153 1.668l-.985-.216a3.824 3.824 0 0 0-3.3-2.965 3.802 3.802 0 0 0-3.723 1.85c-.444-.049-.9-.085-1.344-.12a3.828 3.828 0 0 0-3.962-2.126v1.885h-.036l.036 9.16c14.514.515 28.356 6.218 38.98 16.121l3.385-3.469 2.99-3.049Z" fill="#fff"/>
        </g>
    </g>
</svg>
